<svg xmlns="http://www.w3.org/2000/svg" width="19" height="12" viewBox="0 0 19 12">
    <g fill="#F85656" fill-rule="nonzero">
        <path d="M2.463 3.911c0-1.064.828-1.93 1.847-1.93h4.147c.644 0 1.212.346 1.543.87.33-.524.899-.87 1.543-.87h4.147c1.019 0 1.847.866 1.847 1.93V4H18V2.118C18 .95 17.09 0 15.972 0H4.028C2.91 0 2 .95 2 2.118V4h.463v-.089zM18.244 5H.756C.339 5 0 5.316 0 5.705v4.09c0 .389.34.705.756.705h.314l-.371.978c-.078.203.037.427.255.5a.448.448 0 0 0 .14.022.42.42 0 0 0 .396-.26l.471-1.24H17.04l.47 1.24a.42.42 0 0 0 .396.26.448.448 0 0 0 .14-.023c.22-.072.334-.296.256-.5l-.371-.977h.314c.417 0 .756-.316.756-.705v-4.09c0-.389-.34-.705-.756-.705z"/>
        <path d="M11.966 3c-.533 0-.966.413-.966.92V4h6v-.08c0-.507-.433-.92-.966-.92h-4.068zM4.966 3C4.433 3 4 3.413 4 3.92V4h6v-.08c0-.507-.433-.92-.966-.92H4.966z"/>
    </g>
</svg>
