<svg xmlns="http://www.w3.org/2000/svg" width="20" height="18" viewBox="0 0 20 18">
    <g fill="#F85656" fill-rule="nonzero">
        <path d="M5 6h5v4H5zM5 4h4V0C6.961.32 5.342 1.943 5 4zM11 0v4h4c-.342-2.057-1.961-3.68-4-4zM11 6h5v4h-5zM19.19 11H.81c-.448 0-.811.392-.811.875s.363.875.81.875h.271v4.375c0 .483.363.875.81.875h16.217c.448 0 .81-.392.81-.875V12.75h.271c.448 0 .811-.392.811-.875S19.637 11 19.19 11zM4.323 13.406V16.25H2.703v-3.5h1.621v.656zm3.244 0V16.25H5.946V12.75h1.622v.656zm3.243 0V16.25H9.189V12.75h1.621v.656zm3.243 0V16.25h-1.622V12.75h1.622v.656zm3.243 2.844h-1.621V12.75h1.621v3.5z"/>
    </g>
</svg>
