<svg xmlns="http://www.w3.org/2000/svg" width="17" height="17" viewBox="0 0 17 17">
    <path fill="#F85656" fill-rule="nonzero" d="M15.767 4.021H10.51L12.377.878a.586.586 0 0 0-.187-.793.555.555 0 0 0-.774.192L9.193 4.021H7.807L5.584.277A.555.555 0 0 0 4.81.085a.586.586 0 0 0-.187.793l1.866 3.143H1.233C.553 4.021 0 4.589 0 5.287v10.447C0 16.432.553 17 1.233 17h14.534c.68 0 1.233-.568 1.233-1.266V5.287c0-.698-.553-1.266-1.233-1.266zm-3.845 10.195c0 .38-.3.688-.67.688h-8.58a.68.68 0 0 1-.67-.688v-7.41c0-.38.3-.689.67-.689h8.58c.37 0 .67.308.67.688v7.41zm2.48-.22c-.64 0-1.163-.536-1.163-1.194 0-.658.522-1.194 1.164-1.194.641 0 1.163.536 1.163 1.194 0 .658-.522 1.194-1.163 1.194zm0-4.583c-.64 0-1.163-.536-1.163-1.194 0-.658.522-1.194 1.164-1.194.641 0 1.163.536 1.163 1.194 0 .658-.522 1.194-1.163 1.194z"/>
</svg>
