<svg xmlns="http://www.w3.org/2000/svg" width="17" height="12" viewBox="0 0 17 12">
    <path fill="#F85656" fill-rule="nonzero" d="M8.5 9c-.857 0-1.552.672-1.552 1.5S7.643 12 8.5 12c.857 0 1.552-.672 1.552-1.5S9.357 9 8.5 9zm8.318-5.244C14.742 1.369 11.71 0 8.5 0S2.259 1.369.182 3.756a.732.732 0 0 0 .095 1.056.788.788 0 0 0 .499.176.787.787 0 0 0 .595-.267A9.433 9.433 0 0 1 8.5 1.5c2.75 0 5.35 1.174 7.13 3.22a.787.787 0 0 0 .594.268.787.787 0 0 0 .5-.176.732.732 0 0 0 .094-1.056zM8.5 3a7.86 7.86 0 0 0-5.941 2.682.732.732 0 0 0 .095 1.056.79.79 0 0 0 .499.176.785.785 0 0 0 .594-.267A6.287 6.287 0 0 1 8.5 4.5a6.29 6.29 0 0 1 4.753 2.147.785.785 0 0 0 .595.267.787.787 0 0 0 .499-.176.732.732 0 0 0 .095-1.056A7.863 7.863 0 0 0 8.5 3zm0 3a4.715 4.715 0 0 0-3.565 1.609.732.732 0 0 0 .095 1.056.79.79 0 0 0 .5.176.785.785 0 0 0 .594-.267A3.144 3.144 0 0 1 8.5 7.5c.916 0 1.783.391 2.376 1.074a.785.785 0 0 0 .595.267.787.787 0 0 0 .499-.176.732.732 0 0 0 .095-1.056A4.715 4.715 0 0 0 8.5 6z"/>
</svg>
