<svg xmlns="http://www.w3.org/2000/svg" width="31" height="20" viewBox="0 0 31 20">
    <g fill="#F85656" fill-rule="nonzero">
        <path d="M3.94 6.258c0-1.703 1.326-3.088 2.956-3.088h6.636c1.03 0 1.939.554 2.468 1.391.53-.837 1.438-1.391 2.468-1.391h6.636c1.63 0 2.956 1.385 2.956 3.088V6.4h.74V3.389C28.8 1.52 27.345 0 25.556 0H6.444C4.655 0 3.2 1.52 3.2 3.389V6.4h.74v-.142zM29.19 8H1.21C.542 8 0 8.506 0 9.127v6.545c0 .622.543 1.127 1.21 1.127h.503l-.595 1.565c-.124.326.06.684.409.8.074.024.15.036.224.036.277 0 .536-.16.633-.417l.754-1.984h24.124l.754 1.984a.671.671 0 0 0 .633.417c.074 0 .15-.012.224-.036.35-.116.533-.474.41-.8l-.596-1.565h.504c.666 0 1.209-.505 1.209-1.127V9.127C30.4 8.506 29.857 8 29.19 8z"/>
        <path d="M19.146 4.8c-.853 0-1.546.66-1.546 1.473V6.4h9.6v-.127c0-.812-.693-1.473-1.545-1.473h-6.51zM7.946 4.8c-.853 0-1.546.66-1.546 1.473V6.4H16v-.127c0-.812-.693-1.473-1.546-1.473H7.946z"/>
    </g>
</svg>
