<svg xmlns="http://www.w3.org/2000/svg" width="26" height="26" viewBox="0 0 26 26">
    <g fill="#F85656" fill-rule="nonzero">
        <path d="M0 14.4l.624 5.516c.21 1.852 1.797 3.248 3.692 3.248h.995l-1.016 1.25a.722.722 0 0 0 .116 1.026c.137.108.3.16.464.16a.747.747 0 0 0 .58-.274l1.759-2.162h11.172l1.759 2.162a.748.748 0 0 0 1.044.114.722.722 0 0 0 .116-1.027l-1.016-1.249h.995c1.895 0 3.483-1.396 3.692-3.248L25.6 14.4H0zM23.385 9.846H2.215c-.258 0-.507.045-.738.127v-6.28c0-1.222.994-2.216 2.215-2.216h1.723a.74.74 0 0 1 .739.738v.075A3.699 3.699 0 0 0 3.2 5.908v.985c0 .407.33.738.739.738h5.907c.408 0 .739-.33.739-.738v-.985A3.699 3.699 0 0 0 7.63 2.29v-.075A2.218 2.218 0 0 0 5.415 0H3.692A3.697 3.697 0 0 0 0 3.692V12.8h25.6v-.739a2.218 2.218 0 0 0-2.215-2.215z"/>
    </g>
</svg>
