<svg xmlns="http://www.w3.org/2000/svg" width="32" height="29" viewBox="0 0 32 29">
    <g fill="#F85656" fill-rule="nonzero">
        <path d="M8 9.6h8V16H8zM8 6.4h6.4V0C11.138.512 8.547 3.11 8 6.4zM17.6 0v6.4H24C23.453 3.11 20.862.512 17.6 0zM17.6 9.6h8V16h-8zM30.703 17.6H1.297C.581 17.6 0 18.227 0 19c0 .773.58 1.4 1.297 1.4h.433v7c0 .773.58 1.4 1.297 1.4h25.946c.717 0 1.297-.627 1.297-1.4v-7h.433c.716 0 1.297-.627 1.297-1.4 0-.773-.58-1.4-1.297-1.4zM6.919 21.45V26H4.324v-5.6H6.92v1.05zm5.19 0V26H9.513v-5.6h2.594v1.05zm5.188 0V26h-2.594v-5.6h2.594v1.05zm5.19 0V26h-2.595v-5.6h2.594v1.05zM27.675 26H25.08v-5.6H27.676V26z"/>
    </g>
</svg>
