<svg xmlns="http://www.w3.org/2000/svg" width="24" height="28" viewBox="0 0 24 28">
    <g fill="#F85656" fill-rule="nonzero">
        <path d="M6.4 20.8h14.4v1.6H6.4zM6.4 17.6h14.4v1.6H6.4zM6.4 14.4h14.4V16H6.4zM9.6 8H16v1.6H9.6z"/>
        <path d="M20.485 3.516A11.919 11.919 0 0 0 12 0a11.919 11.919 0 0 0-8.485 3.516A11.929 11.929 0 0 0 0 12.005V27.2h3.186V12.755h17.628V27.2H24V12.005c0-3.207-1.248-6.221-3.515-8.489zm-3.68 6.048h-9.61V4.78h9.61v4.784z"/>
        <path d="M6.4 25.6h14.4v1.6H6.4z"/>
    </g>
</svg>
