<svg xmlns="http://www.w3.org/2000/svg" width="27" height="27" viewBox="0 0 27 27">
    <path fill="#F85656" fill-rule="nonzero" d="M25.041 6.386h-8.347l2.964-4.99A.931.931 0 0 0 19.36.133.881.881 0 0 0 18.13.44l-3.53 5.946H12.4L8.869.44A.881.881 0 0 0 7.64.134a.931.931 0 0 0-.298 1.261l2.964 4.991H1.959C.879 6.386 0 7.288 0 8.396V24.99C0 26.098.879 27 1.959 27H25.04c1.08 0 1.959-.902 1.959-2.01V8.396c0-1.108-.879-2.01-1.959-2.01zm-6.107 16.192c0 .604-.476 1.093-1.064 1.093H4.243c-.588 0-1.065-.49-1.065-1.093v-11.77c0-.603.477-1.093 1.065-1.093H17.87c.588 0 1.064.49 1.064 1.093v11.77zm3.941-.35c-1.019 0-1.848-.85-1.848-1.895 0-1.046.83-1.897 1.848-1.897 1.019 0 1.848.851 1.848 1.897 0 1.045-.83 1.896-1.848 1.896zm0-7.278c-1.019 0-1.848-.85-1.848-1.896 0-1.046.83-1.897 1.848-1.897 1.019 0 1.848.851 1.848 1.897 0 1.045-.83 1.896-1.848 1.896z"/>
</svg>
