<svg xmlns="http://www.w3.org/2000/svg" width="28" height="20" viewBox="0 0 28 20">
    <path fill="#F85656" fill-rule="nonzero" d="M13.6 14.4c-1.371 0-2.484 1.075-2.484 2.4s1.113 2.4 2.484 2.4 2.484-1.075 2.484-2.4-1.113-2.4-2.484-2.4zm13.309-8.391C23.587 2.189 18.736 0 13.6 0 8.464 0 3.614 2.19.291 6.009a1.171 1.171 0 0 0 .153 1.69c.232.189.515.282.797.282.354 0 .706-.146.952-.428C5.041 4.278 9.199 2.4 13.6 2.4c4.4 0 8.559 1.878 11.407 5.152.246.282.598.428.952.428.282 0 .566-.092.798-.282a1.171 1.171 0 0 0 .152-1.69zM13.6 4.8c-3.669 0-7.133 1.564-9.506 4.291a1.171 1.171 0 0 0 .152 1.69c.233.19.516.282.799.282.354 0 .706-.145.951-.428C7.894 8.452 10.666 7.2 13.6 7.2s5.706 1.252 7.605 3.435c.246.283.598.428.951.428.283 0 .566-.092.798-.281a1.172 1.172 0 0 0 .153-1.69C20.733 6.363 17.269 4.8 13.6 4.8zm0 4.8a7.544 7.544 0 0 0-5.704 2.574 1.171 1.171 0 0 0 .152 1.69c.233.19.516.282.799.282.354 0 .706-.145.951-.428A5.03 5.03 0 0 1 13.6 12a5.03 5.03 0 0 1 3.802 1.718c.246.284.598.428.951.428.283 0 .566-.092.799-.281a1.171 1.171 0 0 0 .152-1.69A7.544 7.544 0 0 0 13.6 9.6z"/>
</svg>
