<svg xmlns="http://www.w3.org/2000/svg" xmlns:xlink="http://www.w3.org/1999/xlink" width="330" height="309" viewBox="0 0 330 309">
    <defs>
        <ellipse id="a" cx="136.022" cy="19.232" rx="5.133" ry="5.129"/>
        <ellipse id="b" cx="248.304" cy="283.998" rx="4.491" ry="4.488"/>
        <ellipse id="c" cx="286.801" cy="178.861" rx="4.491" ry="4.488"/>
        <ellipse id="d" cx="86.618" cy="303.23" rx="5.775" ry="5.77"/>
    </defs>
    <g fill="none" fill-rule="evenodd">
        <g fill="#F4F4F4" transform="translate(-4 9.251)">
            <rect width="40.343" height="236.478" x="93.271" y="-41.605" rx="20.171" transform="rotate(60 113.443 76.634)"/>
            <rect width="40.343" height="236.478" x="129.172" y="28.518" rx="20.171" transform="rotate(60 149.343 146.757)"/>
            <rect width="40.343" height="48.117" x="264.202" y="46.284" rx="20.171" transform="rotate(60 284.373 70.342)"/>
            <rect width="40.343" height="236.478" x="171.599" y="97.365" rx="20.171" transform="rotate(60 191.77 215.604)"/>
        </g>
        <g fill="#70E500" transform="translate(257.627)">
            <rect width="2.5" height="9" x="3.75" rx="1.25"/>
            <rect width="2.5" height="9" x="3.75" rx="1.25" transform="rotate(90 5 4.5)"/>
        </g>
        <g transform="translate(-.3 51.286)">
            <rect width="2.5" height="9" x="3.75" fill="#95D3FA" rx="1.25"/>
            <rect width="2.5" height="9" x="3.75" fill="#8ACEFA" rx="1.25" transform="rotate(90 5 4.5)"/>
        </g>
        <g transform="translate(-.3)">
            <use fill="#FFF" xlink:href="#a"/>
            <ellipse cx="136.022" cy="19.232" stroke="#F85BB8" stroke-width="2" rx="4.133" ry="4.129"/>
        </g>
        <g transform="translate(-.3)">
            <use fill="#FFF" xlink:href="#b"/>
            <ellipse cx="248.304" cy="283.998" stroke="#FBC410" stroke-width="2" rx="3.491" ry="3.488"/>
        </g>
        <g transform="translate(-.3)">
            <use fill="#FFF" xlink:href="#c"/>
            <ellipse cx="286.801" cy="178.861" stroke="#7DE827" stroke-width="2" rx="3.491" ry="3.488"/>
        </g>
        <g transform="translate(-.3)">
            <use fill="#FFF" xlink:href="#d"/>
            <ellipse cx="86.618" cy="303.23" stroke="#F85BB8" stroke-width="2" rx="4.775" ry="4.77"/>
        </g>
        <path fill="#FFF" stroke="#FBC92E" stroke-width="2" d="M23.79 188.017l-2.003 5.381a2 2 0 0 1-3.338.667l-3.504-3.759a2 2 0 0 1 .897-3.282l5.508-1.623a2 2 0 0 1 2.44 2.616z"/>
        <path fill="#FFF" stroke="#8ACEFA" stroke-width="2" d="M327.914 111.088l-2.003 5.381a2 2 0 0 1-3.337.666l-3.505-3.758a2 2 0 0 1 .897-3.283l5.508-1.622a2 2 0 0 1 2.44 2.616z"/>
        <g transform="translate(106 103)">
            <circle cx="51.5" cy="51.5" r="51.5" fill="#F85656"/>
            <g fill="#FFF" fill-rule="nonzero">
                <path d="M35.561 68.949V34.052H64.83V63.36l5.576-4.436V31.368c0-1.482-1.247-2.684-2.786-2.684H32.774c-1.54 0-2.787 1.202-2.787 2.684v40.264c0 1.482 1.248 2.684 2.787 2.684h24.324l-3.94-5.367H35.56z"/>
                <path d="M77.784 57.737a1.46 1.46 0 0 0-1.87-.06L62.94 67.963l-8.646-4.976a1.457 1.457 0 0 0-1.765.242 1.313 1.313 0 0 0-.117 1.705l9.37 12.72c.262.356.688.57 1.142.574h.013c.45 0 .873-.204 1.14-.555l13.88-18.148a1.32 1.32 0 0 0-.173-1.788zM58.51 37.81H41.885c-1.53 0-2.77 1.168-2.77 2.608 0 1.44 1.24 2.607 2.77 2.607H58.51c1.53 0 2.768-1.167 2.768-2.607 0-1.44-1.237-2.608-2.767-2.608zM58.51 46.937H41.885c-1.53 0-2.77 1.167-2.77 2.607 0 1.44 1.24 2.608 2.77 2.608H58.51c1.53 0 2.768-1.167 2.768-2.608.004-1.44-1.237-2.607-2.767-2.607zM58.51 54.76H41.885c-1.53 0-2.77 1.167-2.77 2.607 0 1.44 1.24 2.608 2.77 2.608H58.51c1.53 0 2.768-1.168 2.768-2.608.004-1.44-1.237-2.608-2.767-2.608z"/>
            </g>
        </g>
    </g>
</svg>
